<svg version="1.1" id="Layer_1" xmlns="http://www.w3.org/2000/svg" xmlns:xlink="http://www.w3.org/1999/xlink" x="0px" y="0px"
	 width="100%" viewBox="0 0 1200 1200" enable-background="new 0 0 1200 1200" xml:space="preserve">
<path fill="#FFFFFF" opacity="1.000000" stroke="none" 
	d="
M765.000000,1201.000000 
	C511.500000,1201.000000 258.500000,1200.990479 5.500038,1201.093506 
	C1.750830,1201.094971 0.906084,1200.249023 0.907021,1196.500000 
	C1.006199,799.500000 1.006199,402.500000 0.907021,5.500023 
	C0.906084,1.750933 1.750933,0.906086 5.500023,0.907022 
	C402.500000,1.006185 799.500000,1.006186 1196.500000,0.907022 
	C1200.249023,0.906086 1201.093994,1.750932 1201.093140,5.500023 
	C1200.993896,402.500000 1200.993896,799.500000 1201.093140,1196.500000 
	C1201.093994,1200.249023 1200.249390,1201.097046 1196.499878,1201.094116 
	C1052.833374,1200.983032 909.166687,1201.000000 765.000000,1201.000000 
z"/>
<path fill="#010101" opacity="1.000000" stroke="none" 
	d="
M972.338623,739.093872 
	C972.770325,768.825867 972.917480,798.482178 972.779907,828.137146 
	C972.727661,839.408142 965.155762,846.733215 953.939026,847.157654 
	C952.774292,847.201721 951.606628,847.169495 950.440369,847.169495 
	C721.182922,847.169739 491.925446,847.168945 262.667999,847.175781 
	C258.332886,847.175964 254.017197,847.211548 250.048523,845.031555 
	C243.047104,841.185730 240.146271,835.109192 240.151047,827.322510 
	C240.174545,789.001831 240.163101,750.681213 240.161270,712.360535 
	C240.159882,683.536804 240.154388,654.713074 240.127258,625.417847 
	C240.660110,623.136047 242.203400,622.405579 243.770432,621.948303 
	C251.262024,619.762390 258.016968,615.940613 265.001740,612.617676 
	C266.821228,611.752075 268.860565,610.270752 270.932251,613.070801 
	C271.835083,616.269165 271.610901,619.115173 271.611969,621.938843 
	C271.627655,663.586792 271.622131,705.234802 271.622833,746.882751 
	C271.622864,748.382019 271.590485,749.882202 271.640106,751.380493 
	C271.812134,756.574707 272.346008,757.140320 277.363770,757.347778 
	C279.360748,757.430420 281.361542,757.377197 283.360596,757.377197 
	C387.147308,757.377869 490.933990,757.356079 594.720703,757.384094 
	C691.341614,757.410217 787.962463,757.340942 884.583374,757.372559 
	C888.914795,757.374023 893.244873,757.383240 898.021423,757.602295 
	C904.594055,758.195129 910.389160,760.579895 916.625610,760.681335 
	C936.752869,761.008545 954.794617,755.996094 968.990662,740.777588 
	C969.792358,739.918152 970.744202,739.246643 972.338623,739.093872 
z"/>
<path fill="#6DC63F" opacity="1.000000" stroke="none" 
	d="
M269.910126,611.953369 
	C260.058319,616.503113 250.667068,621.187195 240.413544,624.780518 
	C216.866089,631.911987 192.747711,633.661804 168.889130,636.933167 
	C157.024094,638.560059 145.119522,639.901855 133.262955,641.584900 
	C130.529327,641.972900 129.367798,641.596802 128.995972,638.611633 
	C124.698624,604.110901 120.327827,569.619141 115.897156,535.135132 
	C111.063889,497.517853 106.116234,459.915222 101.277924,422.298553 
	C98.009758,396.889435 94.930595,371.455505 91.531036,346.064270 
	C91.073647,342.648071 92.768784,342.452545 95.011940,342.170441 
	C114.322823,339.742035 133.663773,337.531128 152.938690,334.845673 
	C167.118973,332.869995 181.323044,331.101379 195.626785,331.446106 
	C212.980515,331.864349 230.076523,334.247467 246.272949,341.068237 
	C247.949921,341.774445 249.688309,342.334869 251.773376,343.045105 
	C257.338531,343.613373 261.459625,346.636505 265.511627,349.362732 
	C274.619110,355.490326 283.212616,362.321167 290.821045,370.848175 
	C306.897003,390.051636 316.481354,411.956299 322.469696,435.695740 
	C326.975006,453.556000 328.825165,471.648102 329.475189,490.024750 
	C330.245117,511.790955 327.407318,532.924561 319.720306,553.197571 
	C310.155823,578.422058 294.061554,598.490295 269.910126,611.953369 
z"/>
<path fill="#3FA1C6" opacity="1.000000" stroke="none" 
	d="
M972.892944,738.844604 
	C966.035889,746.494507 958.370300,752.419556 949.129761,756.321533 
	C935.388977,762.123779 921.274719,763.488037 906.698486,760.609070 
	C904.743347,760.222900 902.809509,759.728638 900.514221,759.134888 
	C886.601624,755.374023 879.128784,744.888306 872.566162,733.786499 
	C866.358704,723.285522 862.009949,711.848450 859.134827,699.995117 
	C845.041138,641.889404 830.168762,583.978271 815.815491,525.937744 
	C813.344849,515.947144 813.353271,515.999695 823.140076,513.548706 
	C855.289978,505.497284 887.450806,497.489594 919.597290,489.424438 
	C921.373718,488.978729 923.144592,488.510406 924.950134,488.184692 
	C927.909607,487.650726 929.765015,488.780029 930.533447,491.727081 
	C933.012573,501.235413 935.497742,510.744476 937.662659,520.327820 
	C938.641296,524.659912 937.465942,526.320068 932.406067,527.708679 
	C922.289246,530.485107 912.105347,533.019592 901.866821,535.317383 
	C892.601990,537.396606 883.460144,539.975891 874.207153,542.090088 
	C870.183655,543.009460 869.164734,545.143555 870.139282,548.979248 
	C873.953308,563.990906 877.779053,579.000916 881.394165,594.061218 
	C882.412903,598.305359 884.722839,598.709961 888.391785,597.765015 
	C901.777893,594.317322 915.196350,590.993958 928.621155,587.698608 
	C936.597839,585.740662 937.594971,586.505615 939.835327,594.411499 
	C941.307190,599.605469 941.511719,605.164917 944.491882,610.329834 
	C945.759705,614.312500 945.868591,617.946289 944.300842,621.875000 
	C936.698669,624.913757 928.974121,626.224792 921.432983,628.218384 
	C913.067993,630.429688 904.658752,632.475952 896.251038,634.521729 
	C893.532593,635.183228 891.594666,636.113586 892.477844,639.575256 
	C897.003052,657.311035 901.291687,675.106750 905.895142,692.822998 
	C906.059753,693.456665 906.303223,694.077576 907.629517,694.600037 
	C916.352173,681.799377 926.857544,670.702698 942.992004,666.141907 
	C949.961487,665.479797 956.552551,664.870483 962.922974,667.398621 
	C966.669800,668.885437 970.015869,670.911133 972.527466,674.719238 
	C978.829712,683.405457 982.719116,692.340332 983.482849,702.971497 
	C984.444763,716.362183 980.467590,727.828674 972.892944,738.844604 
z"/>
<path fill="#FDE086" opacity="1.000000" stroke="none" 
	d="
M631.587280,342.293457 
	C637.047729,325.602478 639.607544,308.650513 641.622620,291.692657 
	C642.970520,280.349243 644.405151,268.930573 644.178833,257.410126 
	C644.062622,251.491501 644.634766,245.560120 644.865662,239.633316 
	C644.919556,238.250961 644.969299,236.678268 646.507080,236.328400 
	C652.235046,235.025131 657.732178,232.552277 663.939636,235.325226 
	C673.033081,239.387390 682.392090,242.868820 691.708313,246.412613 
	C695.979309,248.037247 697.280518,249.633636 695.393188,254.756454 
	C687.457703,276.296021 682.013977,298.603790 676.496521,320.867645 
	C676.253052,321.849792 675.754761,322.923096 676.731934,323.615265 
	C677.897522,324.440918 678.983337,323.499207 679.937866,322.931702 
	C699.464172,311.322296 720.440552,302.848938 741.588013,294.848999 
	C762.570374,286.911469 783.789246,279.620667 805.701660,274.541534 
	C808.428711,273.909454 810.022278,274.196716 811.383423,276.782928 
	C816.033386,285.618317 820.795959,294.396057 825.638733,303.127472 
	C827.557373,306.586853 827.352173,308.069824 822.903748,309.174133 
	C788.390991,317.741974 754.016968,326.828156 720.767517,339.643646 
	C719.999634,339.939667 718.567139,339.544769 718.663574,341.413452 
	C717.921265,343.371094 716.204590,343.115662 714.850159,343.523560 
	C708.282471,345.501282 707.748657,347.003510 712.476685,352.129089 
	C718.203552,358.337463 724.313538,364.182831 730.613770,370.336792 
	C743.404663,382.871338 757.189331,393.496399 772.367310,402.348816 
	C776.871338,404.975708 781.111328,405.751923 786.048828,403.593750 
	C789.534546,402.070160 793.177063,400.804749 796.822754,399.650299 
	C801.697815,398.106628 803.625671,399.012512 805.317322,403.652771 
	C806.855652,407.872589 808.258911,412.144135 809.574524,416.441589 
	C810.703247,420.128662 809.676514,422.796082 806.245239,424.836365 
	C798.521667,429.429016 790.657532,433.783478 783.015503,438.510406 
	C780.318665,440.178497 777.900024,440.084656 775.071594,438.616333 
	C749.949585,425.574768 727.377747,409.006500 706.531189,389.924530 
	C700.144775,384.078735 693.829163,378.189819 687.602112,371.674072 
	C682.652283,365.313049 677.576904,359.531494 672.198486,352.690094 
	C670.123962,359.378143 669.582642,365.341553 668.860962,371.668945 
	C667.599487,385.654266 664.254822,398.912750 662.461304,412.413635 
	C662.005249,415.846893 660.195557,417.397675 656.843079,417.389343 
	C642.069580,417.352631 627.276733,418.090271 612.545410,416.343170 
	C608.270447,415.836121 607.479370,414.431519 609.212646,409.718750 
	C612.710510,400.208435 615.810974,390.562195 619.215393,381.021210 
	C620.223572,378.195801 620.862915,375.274017 621.766479,371.985321 
	C624.700928,364.018829 626.876038,356.259430 629.013733,348.487488 
	C629.574707,346.447754 629.721069,344.233643 631.587280,342.293457 
z"/>
<path fill="#010101" opacity="1.000000" stroke="none" 
	d="
M730.438110,371.336914 
	C721.874390,364.532593 715.197021,356.530151 708.220947,348.816254 
	C706.517151,346.932281 707.019287,345.723328 709.137085,344.687897 
	C711.948364,343.313477 714.630981,341.594055 718.326538,341.803162 
	C720.682251,341.740234 722.678101,341.826630 724.674011,341.826813 
	C800.282959,341.833679 875.891968,341.831116 951.500916,341.833923 
	C965.813660,341.834442 972.498596,348.540955 972.512939,362.861816 
	C972.616882,466.607269 972.724243,570.352722 972.800598,674.577881 
	C964.552429,667.898132 955.010071,665.506409 943.911926,667.078735 
	C941.488708,665.963867 941.497864,664.000427 941.471191,662.220886 
	C941.293945,650.407837 941.320679,638.593262 941.447571,626.779480 
	C941.463745,625.275024 941.667419,623.784119 943.056396,622.240723 
	C945.338318,618.377014 943.385132,614.692871 943.611816,610.672974 
	C941.678955,604.986328 941.361572,599.534912 941.363586,594.012207 
	C941.389587,523.853577 941.393005,453.694916 941.368347,383.536255 
	C941.364258,371.756104 942.422424,372.632477 930.707886,372.628815 
	C867.048462,372.608887 803.389099,372.623718 739.729675,372.607178 
	C736.750427,372.606415 733.705261,372.970673 730.438110,371.336914 
z"/>
<path fill="#FDAE0B" opacity="1.000000" stroke="none" 
	d="
M437.915344,342.211823 
	C453.800293,338.672638 469.419495,338.406555 485.522308,341.139893 
	C487.230682,341.801971 488.609375,341.381348 490.257538,341.644165 
	C490.580017,341.744843 490.877289,341.808136 490.963806,341.933105 
	C507.026031,343.997345 520.829834,350.980225 533.437073,360.569855 
	C536.824036,363.146149 540.557251,365.806396 540.016052,371.399078 
	C537.286316,382.962372 535.375061,394.285370 532.625732,405.423248 
	C530.361328,414.596558 529.732239,414.958984 520.233398,413.344421 
	C519.249817,413.177185 518.274597,412.971344 517.296387,412.777740 
	C513.375854,412.001831 511.258972,409.625031 510.710205,405.680847 
	C509.176025,394.654602 507.984680,383.586304 506.582275,372.135254 
	C505.323639,360.055145 504.511719,358.978790 492.967834,356.377075 
	C483.690155,354.286163 474.358582,353.073608 464.965607,356.122925 
	C456.902496,358.740509 450.342224,363.100189 446.351257,371.282837 
	C438.395264,389.040405 442.684082,405.222229 458.580414,417.725220 
	C469.196747,426.075348 480.740326,433.139343 491.583801,441.172455 
	C502.588043,449.324554 513.035645,458.017822 520.445496,469.898010 
	C528.196899,482.325836 529.735779,495.839386 527.820068,509.834320 
	C522.864197,546.039001 494.899841,562.559387 466.023987,564.368408 
	C434.569977,566.338989 405.623993,558.848145 379.068207,541.953186 
	C378.224670,541.416565 377.393616,540.859619 376.578339,540.280518 
	C368.029999,534.208374 367.798920,533.525085 370.302063,523.225525 
	C372.860748,512.697327 374.883575,502.054291 377.069611,491.445709 
	C378.558258,484.221680 379.698395,483.519165 386.903412,484.626953 
	C388.386444,484.854980 389.852692,485.191162 391.334381,485.399139 
	C395.763885,486.020844 397.833679,488.430603 398.475494,492.959869 
	C400.251587,505.493896 402.045624,518.030457 403.252686,530.624634 
	C403.843353,536.787781 406.719086,540.244751 412.377350,542.248352 
	C426.125397,547.116699 440.151733,549.753418 454.551331,546.367188 
	C469.212311,542.919678 477.705719,530.921570 478.816620,515.842651 
	C480.021027,499.493683 471.497162,489.146637 459.372864,480.571350 
	C448.223236,472.685425 436.424042,465.707947 425.960907,456.864441 
	C417.023895,449.310822 408.468781,441.284332 402.662872,431.002411 
	C391.784515,411.737518 392.156738,391.896301 400.754883,371.512268 
	C406.948792,358.554657 416.663666,349.899841 429.396637,344.383728 
	C432.056305,343.231567 434.785553,342.754974 437.915344,342.211823 
z"/>
<path fill="#010101" opacity="1.000000" stroke="none" 
	d="
M515.603760,918.506409 
	C523.755920,906.953369 525.410156,893.936768 525.843018,880.723877 
	C526.225647,869.046814 525.950317,869.037720 537.829285,869.037720 
	C585.807373,869.037720 633.785645,869.097595 681.763184,868.936584 
	C686.109375,868.921997 687.584839,869.911072 687.383423,874.421997 
	C686.922180,884.750793 687.564819,894.992920 690.673157,905.023010 
	C695.284546,919.903076 705.104004,929.313782 719.775574,933.957642 
	C721.201538,934.408936 722.707886,934.679626 724.051453,935.304138 
	C727.833923,937.062317 729.440674,940.214294 728.935791,944.253357 
	C728.433350,948.273071 725.608826,949.737061 721.868591,949.854858 
	C720.204407,949.907227 718.539246,949.961792 716.874573,949.961914 
	C643.074890,949.967163 569.275269,949.966553 495.475616,949.965271 
	C494.143066,949.965210 492.809204,949.983154 491.478180,949.933533 
	C487.663696,949.791443 484.395294,948.738647 484.053009,944.242126 
	C483.720428,939.872864 485.164307,936.491272 489.785522,934.973999 
	C493.722351,933.681458 497.686646,932.339722 501.399750,930.529541 
	C506.986084,927.805969 511.813049,924.004028 515.603760,918.506409 
z"/>
<path fill="#010101" opacity="1.000000" stroke="none" 
	d="
M437.754608,341.986267 
	C430.492767,345.261841 422.583374,348.170166 416.035706,353.703064 
	C410.412933,358.454407 405.851837,364.038666 402.231201,370.828064 
	C400.030579,372.708282 397.653564,372.604279 395.331085,372.606262 
	C362.373138,372.634460 329.415222,372.634735 296.457275,372.606293 
	C294.467133,372.604553 292.443146,372.675598 290.194275,371.355042 
	C281.731873,363.521362 273.802643,355.804138 264.266418,350.065765 
	C260.458679,347.774475 256.482239,345.763428 252.365601,343.376038 
	C253.907257,341.972137 255.914276,341.848358 257.911560,341.848999 
	C317.696442,341.868134 377.481323,341.903809 437.754608,341.986267 
z"/>
<path fill="#010101" opacity="1.000000" stroke="none" 
	d="
M1112.429443,340.615479 
	C1118.756714,349.068146 1118.922607,356.101990 1112.912964,365.253204 
	C1095.481323,391.796967 1077.969116,418.287842 1060.489258,444.798248 
	C1058.732666,444.660187 1058.617432,443.041260 1057.939209,442.016663 
	C1052.026489,433.085175 1043.949341,427.403473 1033.265137,425.910828 
	C1029.914307,425.442657 1029.396240,424.793152 1031.370850,421.815277 
	C1048.463501,396.038757 1065.376587,370.143311 1082.443726,344.349701 
	C1090.039429,332.870117 1101.647583,331.396332 1112.429443,340.615479 
z"/>
<path fill="#010101" opacity="1.000000" stroke="none" 
	d="
M539.391357,371.298767 
	C539.826111,367.900726 538.202698,366.001892 536.055969,364.160828 
	C523.126587,353.072205 507.930511,346.665344 491.348480,342.261993 
	C506.870453,341.983246 522.690552,341.854858 538.510803,341.845093 
	C569.322632,341.826050 600.134521,341.873535 631.397827,341.940735 
	C629.743896,351.709198 626.967896,361.241180 623.477783,370.876953 
	C621.196411,372.630127 618.841003,372.605286 616.507629,372.607574 
	C592.872925,372.630890 569.238159,372.634796 545.603455,372.603668 
	C543.609924,372.601044 541.594238,372.627594 539.391357,371.298767 
z"/>
<path fill="#030303" opacity="1.000000" stroke="none" 
	d="
M1002.398804,489.263733 
	C1005.161072,478.239349 1007.752747,467.595825 1010.412903,456.969452 
	C1012.352966,449.219696 1016.863098,444.951752 1024.119263,443.889069 
	C1031.977417,442.738220 1038.234009,445.567841 1042.602051,452.037354 
	C1047.912964,459.903656 1046.008911,469.485687 1038.366089,475.273895 
	C1025.401367,485.092560 1012.447693,494.925873 998.506104,505.498718 
	C999.933594,499.468903 1001.095581,494.560455 1002.398804,489.263733 
z"/>
<path fill="#FDE086" opacity="1.000000" stroke="none" 
	d="
M490.357788,341.504272 
	C489.202148,342.234558 487.840942,342.105316 486.217896,341.407623 
	C487.343048,341.208282 488.739319,341.235992 490.357788,341.504272 
z"/>
<path fill="#FFFFFF" opacity="1.000000" stroke="none" 
	d="
M538.826660,371.278473 
	C566.758850,370.969360 594.487183,370.989227 622.704590,371.055542 
	C622.102173,379.598389 618.298889,387.278015 615.821411,395.355377 
	C614.166870,400.749481 612.044922,406.004639 610.019470,411.278687 
	C608.940552,414.087982 609.632202,414.937958 612.726746,415.144043 
	C627.185730,416.106995 641.661682,415.894531 656.130371,416.182861 
	C659.344910,416.246918 660.661743,415.518585 661.106567,411.919403 
	C662.774414,398.424438 666.082703,385.174988 667.715820,371.307495 
	C674.364258,368.273254 680.866333,369.031006 687.811890,370.682892 
	C697.859558,380.136169 707.304749,389.521118 717.538269,398.054871 
	C735.852112,413.326813 755.145386,427.141663 776.455566,438.008667 
	C778.565063,439.084412 780.061462,438.861511 781.959167,437.716034 
	C790.079712,432.814392 798.236877,427.969269 806.475037,423.268829 
	C809.004395,421.825653 809.568909,420.029327 808.705505,417.469635 
	C807.164185,412.900208 805.461792,408.375183 804.160767,403.737885 
	C803.158875,400.166931 801.366577,399.229065 797.928162,400.539703 
	C792.802002,402.493744 787.558777,404.140137 782.426147,406.078156 
	C780.223633,406.909851 778.413147,406.709778 776.293152,405.644348 
	C759.010620,396.958649 744.106689,385.078857 730.129333,371.435242 
	C739.812622,371.093475 749.639709,371.010284 759.466797,371.008270 
	C819.112000,370.995972 878.757385,371.045685 938.402222,370.905518 
	C942.435059,370.896027 943.607727,371.672760 943.599243,375.952454 
	C943.446716,453.757507 943.486145,531.562988 943.462036,609.818848 
	C940.961609,608.887024 941.575928,606.194641 940.851868,604.078979 
	C940.368896,602.667542 940.098022,601.183655 939.729919,599.732788 
	C936.537598,587.150940 936.536926,587.148865 923.758057,590.362732 
	C911.344788,593.484497 898.905518,596.508545 886.537109,599.799011 
	C882.844421,600.781433 881.228516,599.983582 880.309143,596.122803 
	C876.422363,579.800781 872.342285,563.522705 868.115845,547.285095 
	C867.137024,543.524475 868.072632,542.109558 871.853821,541.207397 
	C891.761292,536.457214 911.580017,531.334900 931.490662,526.598572 
	C935.961060,525.535156 937.551453,524.118408 936.055359,519.213867 
	C933.339905,510.312073 931.262695,501.205078 929.208130,492.118378 
	C928.556274,489.235352 927.562073,488.791046 924.807129,489.484467 
	C889.362244,498.405792 853.904785,507.279327 818.396179,515.942017 
	C814.359558,516.926758 815.495972,519.019592 816.079590,521.357605 
	C829.558167,575.358276 843.119873,629.338257 856.493713,683.364807 
	C860.733337,700.491821 864.887329,717.586487 873.735107,733.109436 
	C879.986145,744.076538 888.128662,753.014160 899.962585,758.693420 
	C898.166565,759.045532 896.170471,759.158020 894.174438,759.158081 
	C688.057434,759.166077 481.940460,759.144592 275.823547,759.286377 
	C270.671783,759.289917 269.355499,758.075012 269.380157,752.876587 
	C269.601288,706.222229 269.509003,659.566406 269.509521,612.433960 
	C276.776489,606.177673 284.641693,601.230774 291.326569,594.625061 
	C309.732483,576.437195 320.337036,554.317566 325.065918,529.205261 
	C330.791779,498.798431 328.685547,468.654816 321.704346,438.654297 
	C316.865417,417.859741 309.092285,398.419312 296.810638,380.887512 
	C294.622406,377.763855 292.173676,374.822754 289.804199,371.449280 
	C326.860931,371.069824 363.958618,371.038422 401.524017,371.040894 
	C396.917542,383.634613 394.494446,396.598175 396.555664,410.115784 
	C399.216339,427.564972 409.533661,440.380310 422.137665,451.790131 
	C433.923859,462.459595 447.618408,470.483795 460.450043,479.705444 
	C468.519867,485.504974 476.161377,491.998840 478.871124,501.998749 
	C484.213654,521.714661 475.439789,548.708984 445.044220,549.188599 
	C431.636749,549.400146 418.952454,546.914368 406.834137,541.208435 
	C404.339874,540.033997 403.047577,538.623230 402.698517,535.696472 
	C401.004486,521.493774 398.879639,507.341736 397.256348,493.131897 
	C396.806824,489.196838 395.655334,487.421478 391.457703,486.777832 
	C379.820465,484.993530 379.870239,484.763092 377.405487,496.343414 
	C375.118896,507.086792 372.892670,517.844604 370.434052,528.548767 
	C369.705780,531.719421 370.321136,533.788818 372.957916,535.848389 
	C391.693909,550.483276 413.215057,558.367737 436.428680,561.889954 
	C453.876831,564.537415 471.257477,564.557373 488.150330,558.231384 
	C512.566040,549.088135 527.205078,526.715332 527.309875,500.528198 
	C527.403870,477.026154 514.732117,461.365601 497.828430,447.690399 
	C486.287231,438.353485 473.561768,430.691315 461.635834,421.903107 
	C452.060852,414.847351 443.820282,406.793884 441.631073,394.355072 
	C440.229553,386.391846 441.631287,378.813171 444.974030,371.173370 
	C447.125854,369.634491 449.255371,369.416565 451.452057,369.414062 
	C468.104462,369.395050 484.756866,369.388672 501.409271,369.424469 
	C503.239136,369.428406 505.084412,369.430389 507.150146,370.631531 
	C509.039429,382.295654 510.677124,393.620850 512.006042,404.982178 
	C512.451782,408.793182 513.618713,410.921082 517.850952,411.453369 
	C531.022827,413.109833 528.550354,415.879944 531.834351,402.226471 
	C534.278809,392.063812 536.372803,381.816833 538.826660,371.278473 
z"/>
<path fill="#E9E9E9" opacity="1.000000" stroke="none" 
	d="
M556.580200,807.158875 
	C555.126526,811.623962 551.739685,810.994080 548.628418,811.042358 
	C546.828247,811.070251 546.999268,809.829773 546.999146,808.669617 
	C546.998291,801.222656 547.027466,793.775574 546.975464,786.328979 
	C546.964478,784.752563 547.254028,783.854858 549.121338,783.929504 
	C551.927612,784.041748 555.013916,783.544434 556.215576,786.991150 
	C556.742065,788.501282 556.793884,790.227478 556.805176,791.857361 
	C556.839355,796.819519 556.748901,801.782410 556.580200,807.158875 
z"/>
<path fill="#E9E9E9" opacity="1.000000" stroke="none" 
	d="
M635.022217,798.344910 
	C635.076355,796.176453 634.625732,794.875549 632.569946,794.994568 
	C630.313049,795.125305 631.192505,796.908386 631.157471,798.017639 
	C631.047424,801.507385 631.148987,805.003235 631.095764,808.495667 
	C631.079956,809.532837 631.574158,811.070984 629.662659,810.994446 
	C627.919495,810.924744 628.194885,809.517517 628.192444,808.400757 
	C628.176636,801.247986 628.163635,794.095093 628.202759,786.942566 
	C628.209290,785.742432 627.662231,783.940369 629.798401,784.034363 
	C632.031372,784.132690 630.884399,786.016663 631.080933,787.122559 
	C631.252686,788.088745 631.116821,789.109619 631.116821,790.297546 
	C634.359619,789.287109 633.137756,783.709412 638.064636,784.094849 
	C637.235291,785.795654 636.657471,787.250977 635.852600,788.567566 
	C634.657532,790.522583 633.920044,791.970703 636.513733,793.742310 
	C638.811707,795.312012 637.947266,798.308716 637.998474,800.756042 
	C638.054077,803.416382 638.014954,806.078735 638.007080,808.740234 
	C638.003662,809.904358 638.149292,811.188293 636.312622,810.997925 
	C634.857178,810.846985 635.040649,809.741028 635.034363,808.790283 
	C635.012329,805.463562 635.024353,802.136597 635.022217,798.344910 
z"/>
<path fill="#E9E9E9" opacity="1.000000" stroke="none" 
	d="
M606.111328,791.107544 
	C606.758606,788.452820 604.672302,784.398376 607.526245,784.348328 
	C610.691284,784.292908 608.810547,788.272583 608.959473,790.375427 
	C609.298645,795.165833 609.051636,799.996643 609.076843,804.810913 
	C609.084534,806.279419 608.863770,808.088684 611.104492,808.032654 
	C613.371582,807.975952 612.954102,806.096802 612.963196,804.689209 
	C613.001892,798.713013 612.950500,792.736145 613.007080,786.760254 
	C613.017883,785.618591 612.357727,783.812073 614.656555,784.024475 
	C616.457642,784.190857 615.927307,785.678650 615.933960,786.708313 
	C615.974670,793.016479 615.997620,799.325623 615.923828,805.633240 
	C615.888550,808.653870 614.510498,810.854431 611.248657,810.954468 
	C607.698364,811.063477 606.226074,808.762939 606.150757,805.536133 
	C606.042236,800.890259 606.115601,796.240112 606.111328,791.107544 
z"/>
<path fill="#E9E9E9" opacity="1.000000" stroke="none" 
	d="
M651.157837,784.013550 
	C652.462036,783.963562 653.318298,783.834045 654.121948,783.984741 
	C655.756165,784.291260 658.552124,782.977600 658.814453,785.006409 
	C659.198181,787.973450 656.225525,786.581116 654.727112,786.702881 
	C652.557556,786.879150 653.036194,788.289368 652.984497,789.527283 
	C652.927795,790.883484 652.806580,792.204529 654.912659,792.120544 
	C656.051270,792.075195 657.981873,791.439392 657.870239,793.610840 
	C657.763367,795.690552 655.876038,794.904724 654.739014,794.911987 
	C652.998901,794.923096 652.960693,795.933594 652.972961,797.171387 
	C652.992737,799.169128 653.103333,801.177002 652.947937,803.162842 
	C652.688538,806.477112 652.872620,809.166138 657.426392,808.279175 
	C658.597290,808.051147 659.944214,808.368591 659.700806,810.043884 
	C659.495667,811.456299 658.169922,810.945251 657.286255,811.025391 
	C649.998169,811.686646 649.833801,811.670349 650.045166,804.300598 
	C650.238647,797.554443 649.146057,790.762329 651.157837,784.013550 
z"/>
<path fill="#E9E9E9" opacity="1.000000" stroke="none" 
	d="
M587.900024,788.538452 
	C588.156006,786.039429 589.333801,784.700317 591.259949,784.205750 
	C592.468262,783.895508 594.248291,783.258789 594.838501,784.724060 
	C595.545227,786.478821 593.985596,786.777161 592.528015,786.930176 
	C590.273926,787.166687 590.813660,789.038879 590.794067,790.406555 
	C590.722351,795.394958 590.829041,800.386414 590.724792,805.373657 
	C590.658447,808.549072 589.342224,810.846802 585.756653,811.018799 
	C584.946411,811.057678 583.905457,811.192932 583.643188,810.234497 
	C583.350098,809.163696 583.835083,808.215088 585.127014,808.198059 
	C588.236145,808.156982 587.836060,805.924194 587.843750,803.951721 
	C587.863342,798.962463 587.862122,793.973022 587.900024,788.538452 
z"/>
<path fill="#E9E9E9" opacity="1.000000" stroke="none" 
	d="
M569.343872,810.642090 
	C569.262573,809.184814 568.213989,807.529358 570.257446,807.120544 
	C571.184631,806.935059 571.801147,807.363403 571.939392,808.402344 
	C572.177795,810.193420 571.829346,811.390869 569.343872,810.642090 
z"/>
<path fill="#FFFFFE" opacity="1.000000" stroke="none" 
	d="
M240.454544,587.804077 
	C237.781128,590.986511 234.279022,591.740479 231.118774,593.114502 
	C214.686295,600.259094 197.028900,601.600342 179.585266,603.941833 
	C175.792953,604.450989 171.901810,604.519897 168.214935,605.432800 
	C164.756073,606.289124 163.903214,605.168396 163.512619,601.954895 
	C161.445175,584.946228 159.173721,567.962341 156.990250,550.967651 
	C151.118088,505.263184 145.255692,459.557465 139.387238,413.852509 
	C137.628784,400.157135 135.907730,386.456696 134.061539,372.773132 
	C133.710190,370.169037 134.124405,368.726318 137.097656,368.432892 
	C155.442703,366.622314 173.586258,362.520996 192.160400,363.348297 
	C209.182449,364.106445 225.346512,367.950470 240.009583,377.767487 
	C241.746399,380.063904 241.611038,382.438629 241.611786,384.759155 
	C241.633133,450.343018 241.635941,515.926880 241.610382,581.510742 
	C241.609619,583.500610 241.688522,585.522461 240.454544,587.804077 
z"/>
<path fill="#030303" opacity="1.000000" stroke="none" 
	d="
M240.574768,588.212524 
	C240.195068,518.487061 240.180969,448.733826 240.198669,378.511780 
	C253.015396,385.989624 262.853119,396.575684 269.327515,410.669739 
	C270.926208,417.687653 271.533386,424.485046 271.551971,431.275116 
	C271.661987,471.483032 271.598572,511.691376 271.624237,551.899597 
	C271.626495,555.431213 271.280945,558.849792 269.678223,562.567749 
	C265.096497,571.780640 257.571075,577.547180 249.883896,583.035522 
	C247.121078,585.008118 244.558426,587.592651 240.574768,588.212524 
z"/>
<path fill="#FDFEFE" opacity="1.000000" stroke="none" 
	d="
M269.743774,562.805054 
	C269.507965,512.670532 269.507935,462.311951 269.506836,411.479675 
	C274.296356,416.904755 276.461029,424.106140 278.770447,431.075653 
	C286.943726,455.741791 290.331818,481.163757 288.727722,507.095551 
	C287.578125,525.679443 282.897675,543.380981 272.902069,559.369995 
	C272.140076,560.588806 271.555786,562.062866 269.743774,562.805054 
z"/>
<path fill="#FDFEFE" opacity="1.000000" stroke="none" 
	d="
M943.031128,621.926758 
	C943.477173,636.648987 943.484314,651.347290 943.485962,666.519836 
	C927.882812,672.113220 916.626282,682.460693 908.203979,696.240540 
	C907.879456,696.771606 907.282593,697.136108 906.544495,697.830505 
	C903.773682,692.562561 903.140381,686.959106 901.773987,681.596008 
	C898.125610,667.275635 894.588013,652.927124 890.955994,638.602478 
	C890.383240,636.343567 889.838318,634.719299 893.161865,633.942017 
	C909.674133,630.080444 926.121826,625.943054 943.031128,621.926758 
z"/>
<path fill="#FDFEFE" opacity="1.000000" stroke="none" 
	d="
M943.627014,730.577637 
	C940.309753,738.733704 931.488342,741.527283 925.105286,736.238464 
	C916.707581,729.280334 912.619934,719.457642 910.205383,709.197754 
	C908.798279,703.218628 919.272766,691.692017 925.625793,690.984497 
	C933.375366,690.121399 942.017456,697.333374 943.012146,705.511536 
	C943.112244,706.334534 943.100220,707.171265 943.300049,708.374146 
	C945.314270,715.842590 944.822693,722.974854 943.627014,730.577637 
z"/>
<path fill="#030303" opacity="1.000000" stroke="none" 
	d="
M943.676758,730.762573 
	C943.470337,723.944824 943.477600,716.849915 943.472290,709.250854 
	C947.055725,710.519104 945.604431,714.098877 946.170227,716.850464 
	C947.143250,721.582275 946.834351,726.308105 943.676758,730.762573 
z"/>
<path fill="#030303" opacity="1.000000" stroke="none" 
	d="
M688.211609,370.593231 
	C681.793823,370.962921 675.350891,370.983032 668.436035,370.997650 
	C668.205139,364.158936 669.889404,357.571747 671.266602,349.572510 
	C677.129333,357.254730 682.358643,364.009888 688.211609,370.593231 
z"/>
<path fill="#030303" opacity="1.000000" stroke="none" 
	d="
M507.568756,370.558868 
	C487.057861,370.960785 466.593353,370.965271 445.681458,370.929565 
	C449.146118,361.968384 456.433990,357.252777 465.458344,354.782501 
	C476.581604,351.737701 487.451752,353.591278 498.304993,356.477020 
	C505.496399,358.389130 507.859955,363.323456 507.568756,370.558868 
z"/>
<path fill="#EC4923" opacity="1.000000" stroke="none" 
	d="
M601.671204,723.321289 
	C614.849731,736.062256 633.279846,739.545288 646.813538,732.058289 
	C654.921204,727.573059 659.839111,720.267456 663.727478,712.254089 
	C671.435486,696.368469 673.485229,679.205627 674.612915,661.857971 
	C677.387512,619.173340 680.201904,576.491394 683.032166,533.810486 
	C683.144226,532.120422 682.335266,529.558350 684.875549,529.278381 
	C687.868713,528.948486 687.395813,531.983643 687.725403,533.645691 
	C692.063965,555.520203 696.223938,577.430054 700.498840,599.317261 
	C704.965210,622.184265 709.733765,644.994690 713.956604,667.906067 
	C718.720520,693.753479 710.580261,715.799561 690.779724,732.323914 
	C662.846191,755.635620 630.764587,762.808777 596.045471,749.914368 
	C573.860962,741.675232 560.229065,724.251709 553.232971,702.089355 
	C547.258545,683.163391 545.475891,663.293274 542.178955,643.778198 
	C537.270569,614.724548 532.517944,585.643860 527.416016,556.624512 
	C526.677429,552.423584 527.944885,551.496033 531.649109,551.066040 
	C544.538330,549.569702 557.415100,547.939026 570.260620,546.107239 
	C574.708496,545.472961 576.527527,546.082581 576.849915,551.374756 
	C578.895081,584.947632 581.520203,618.484680 583.701904,652.049866 
	C584.684692,667.169617 584.900085,682.362000 588.061096,697.244141 
	C590.135010,707.007996 594.421143,715.774902 601.671204,723.321289 
z"/>
<path fill="#116CC9" opacity="1.000000" stroke="none" 
	d="
M362.400452,607.455078 
	C353.247101,613.786255 344.085175,614.108276 336.145782,608.609070 
	C328.887695,603.581848 325.575562,594.489990 327.826141,585.771484 
	C329.972992,577.454712 336.813690,571.407715 345.394592,570.241333 
	C354.140015,569.052734 362.780945,573.141907 367.065125,580.496582 
	C371.402557,587.942688 370.911316,597.115051 365.736145,603.955566 
	C364.841583,605.138000 363.698853,606.132690 362.400452,607.455078 
z"/>
<path fill="#030303" opacity="1.000000" stroke="none" 
	d="
M553.886841,798.945923 
	C553.883484,801.415955 553.876160,803.403564 553.878052,805.391113 
	C553.879517,806.862244 553.479553,808.001404 551.755066,808.162598 
	C549.504333,808.372925 549.999634,806.704590 549.990662,805.504883 
	C549.950989,800.204895 549.943604,794.904114 549.996643,789.604370 
	C550.008240,788.444824 549.406006,786.730896 551.658813,786.847290 
	C553.363281,786.935303 553.880859,787.998352 553.877441,789.519287 
	C553.870789,792.500671 553.882629,795.481995 553.886841,798.945923 
z"/>
</svg>