<svg version="1.1" id="Layer_1" xmlns="http://www.w3.org/2000/svg" xmlns:xlink="http://www.w3.org/1999/xlink" x="0px" y="0px"
	 width="100%" viewBox="0 0 1024 1024" enable-background="new 0 0 1024 1024" xml:space="preserve">
<path fill="#000000" opacity="1.000000" stroke="none" 
	d="
M765.000000,723.947327 
	C717.007019,723.924377 669.513977,723.880981 622.020996,723.882019 
	C491.050171,723.885010 360.079376,723.910217 229.108551,723.899841 
	C225.951752,723.899536 222.779312,723.729309 219.641129,723.389465 
	C210.149460,722.361450 204.734772,716.365662 204.700623,706.681396 
	C204.628952,686.351318 204.675522,666.020752 204.675339,645.690430 
	C204.674347,534.206848 204.673096,422.723236 204.674194,311.239655 
	C204.674332,297.019379 210.454147,291.040802 224.570709,291.039520 
	C419.875275,291.022186 615.179871,291.035858 810.484436,291.070831 
	C812.803833,291.071228 815.151611,291.287567 817.437256,291.684570 
	C824.986206,292.995728 830.206299,298.960419 830.414551,306.567810 
	C830.683228,316.385712 830.981262,326.207214 830.985962,336.027313 
	C831.044189,457.676056 831.052734,579.324768 831.063232,700.973511 
	C831.063538,704.297363 831.260010,707.627930 830.408691,710.916077 
	C828.609802,717.864624 823.623108,722.724792 816.449158,723.319519 
	C799.492554,724.724915 782.483398,723.627380 765.000000,723.947327 
M230.881699,581.500000 
	C230.908127,601.160767 230.937485,620.821533 230.959442,640.482300 
	C230.967590,647.774414 229.269821,647.648193 238.155670,647.647766 
	C424.271942,647.639648 610.388245,647.632202 796.504517,647.623657 
	C804.694214,647.623230 804.710083,647.618530 804.711121,639.556519 
	C804.724304,534.751526 804.733826,429.946564 804.739868,325.141602 
	C804.740356,317.324341 804.725098,317.309967 796.853638,317.309814 
	C617.235596,317.306244 437.617523,317.305939 257.999451,317.305603 
	C250.334869,317.305573 242.668076,317.419403 235.006744,317.263062 
	C231.746613,317.196564 230.798706,318.281189 230.807404,321.609711 
	C230.921005,365.084503 230.875122,408.559662 230.874374,452.034760 
	C230.873657,494.856506 230.878647,537.678223 230.881699,581.500000 
M403.525269,700.894958 
	C410.839813,700.936646 418.192505,701.397095 424.458862,696.338867 
	C430.112762,691.774963 433.118744,683.315857 431.136230,676.702576 
	C429.291168,670.547668 424.348114,667.032532 416.153900,666.450867 
	C412.016266,666.157227 407.833557,666.523193 403.690735,666.270752 
	C400.332550,666.066162 398.897003,667.533081 398.327057,670.665344 
	C397.079773,677.520020 395.569397,684.326660 394.312927,691.179810 
	C392.533783,700.883789 392.590271,700.894165 403.525269,700.894958 
M569.431152,663.526550 
	C567.406128,663.507935 566.502747,664.508423 566.234863,666.528381 
	C565.908203,668.991699 565.217041,671.404297 564.753906,673.852173 
	C563.097961,682.605286 561.471863,691.363953 559.781128,700.405640 
	C564.186096,701.059814 567.899780,702.086792 569.065552,696.387573 
	C569.524841,694.142334 571.427429,692.523621 574.045837,692.083374 
	C575.937561,694.835388 577.265808,697.980530 579.611816,699.845154 
	C582.039001,701.774414 585.405090,701.494263 588.787720,699.579102 
	C586.746216,696.034546 584.999329,692.643738 582.908630,689.480103 
	C581.089661,686.727661 581.268311,684.839111 584.012085,682.764526 
	C587.085510,680.440857 589.788696,677.627502 592.634705,675.043823 
	C583.219238,670.826843 578.980957,679.377502 571.674133,683.086609 
	C572.697876,677.659973 573.298645,673.433411 574.329224,669.314514 
	C575.299133,665.438416 574.132629,663.548279 569.431152,663.526550 
M512.793457,697.629456 
	C518.661072,704.640076 524.793823,701.603699 530.978210,697.687866 
	C533.548279,700.723999 536.629456,702.069946 540.381470,701.640625 
	C541.794434,701.478943 543.037170,700.990295 543.422607,699.503784 
	C543.797302,698.058960 544.181763,696.350281 542.458069,695.538086 
	C539.218384,694.011536 539.615662,691.469299 540.219421,688.753052 
	C540.939148,685.514893 541.648621,682.273682 542.298340,679.020996 
	C542.729553,676.862122 543.334778,674.467346 539.953064,674.224731 
	C537.317444,674.035583 534.544067,673.568359 533.917053,677.505737 
	C533.318542,681.264038 532.397339,684.978149 531.474121,688.675720 
	C530.509521,692.539246 528.134521,695.107971 523.953430,694.141418 
	C519.557373,693.125183 520.719116,689.393372 521.098755,686.334229 
	C521.579712,682.459167 523.231140,678.721252 522.613464,674.180603 
	C519.789734,674.630188 515.864685,672.609192 514.990173,676.061279 
	C513.272705,682.840576 510.353455,689.661072 512.793457,697.629456 
M606.453918,695.949951 
	C612.264160,702.823669 622.248413,703.899658 629.116638,698.259705 
	C628.163757,695.349915 627.154602,693.443237 623.148376,694.835266 
	C619.942932,695.949158 615.975952,696.402588 613.851440,691.056030 
	C619.324524,689.897217 624.258545,688.527771 629.285461,687.884216 
	C633.854248,687.299316 634.322815,684.788940 633.299988,681.268555 
	C632.378845,678.098328 630.459106,675.626587 627.213989,674.490967 
	C620.788696,672.242432 614.552307,672.654419 609.559326,677.476440 
	C604.455688,682.405334 603.298340,688.589539 606.453918,695.949951 
M475.385956,701.432251 
	C478.374115,701.461548 481.402710,701.817200 484.342041,701.452637 
	C490.584076,700.678467 494.669159,697.013855 494.557800,692.362488 
	C494.418182,686.529968 489.745972,686.027649 485.485016,684.977295 
	C483.571228,684.505432 480.506866,684.515625 481.090393,681.408325 
	C481.585022,678.774231 484.235626,678.832947 486.424225,678.901978 
	C487.404816,678.932922 488.450500,679.108398 489.337830,679.505981 
	C493.240540,681.254089 494.858765,679.600525 495.246887,675.855469 
	C490.099976,672.478943 480.959595,672.408997 476.302826,675.735046 
	C473.553589,677.698792 472.007965,680.351685 472.362732,683.856018 
	C472.725647,687.440491 475.319305,688.833313 478.319244,689.741028 
	C480.066803,690.269775 481.874481,690.601074 483.618530,691.139771 
	C484.736023,691.484924 485.924011,692.023926 485.921539,693.431274 
	C485.918701,695.075989 484.592621,695.629333 483.277405,695.966736 
	C480.921936,696.571106 478.580353,696.093018 476.422150,695.244385 
	C472.360901,693.647461 470.542511,695.214172 469.975189,699.049011 
	C471.324646,700.549805 473.034302,700.746277 475.385956,701.432251 
M449.463928,691.605957 
	C444.457062,693.142151 442.423859,696.547485 444.668121,699.676636 
	C445.992340,701.523010 447.895599,702.061829 449.963928,701.455139 
	C452.198151,700.799683 453.641602,699.258423 453.839325,696.799622 
	C454.059052,694.066772 452.855713,692.357056 449.463928,691.605957 
z"/>
<path fill="#000000" opacity="1.000000" stroke="none" 
	d="
M485.000000,741.059998 
	C516.992126,741.061951 548.484192,741.056946 579.976318,741.071045 
	C586.981689,741.074158 587.287598,741.379333 587.285706,748.394958 
	C587.284058,754.550598 587.181580,760.688660 588.507507,766.774292 
	C591.744690,781.632141 599.899048,792.075867 614.788574,796.660889 
	C616.369385,797.147705 618.033813,797.624573 619.393616,798.512878 
	C622.165039,800.323486 623.195862,803.108948 622.599121,806.329834 
	C621.991638,809.608948 619.629700,810.989258 616.509399,811.225647 
	C614.850952,811.351135 613.179749,811.337463 611.514343,811.337585 
	C548.863403,811.342285 486.212402,811.341309 423.561432,811.340576 
	C422.561707,811.340576 421.561859,811.323914 420.562225,811.332031 
	C416.749390,811.363037 413.346588,810.480042 412.759674,806.073608 
	C412.181519,801.732971 414.150116,798.672668 418.504028,797.409363 
	C438.011078,791.749390 446.319977,777.759399 447.829315,758.462830 
	C448.153259,754.321228 448.864197,750.194702 448.570679,746.041565 
	C448.306030,742.297119 449.933136,741.017944 453.508423,741.051392 
	C463.838074,741.148254 474.169342,741.069641 485.000000,741.059998 
z"/>
<path fill="#000000" opacity="1.000000" stroke="none" 
	d="
M414.692291,693.188232 
	C403.561829,695.842773 402.770844,695.130127 404.623230,684.577026 
	C404.823578,683.435608 404.844604,682.225403 405.254303,681.165161 
	C406.392151,678.220703 404.836029,673.695129 409.981232,673.041687 
	C414.980682,672.406860 420.084534,674.481628 421.662598,677.885864 
	C423.439484,681.719177 422.207672,687.708374 418.853241,690.730835 
	C417.770203,691.706726 416.351013,692.309509 414.692291,693.188232 
z"/>
<path fill="#000000" opacity="1.000000" stroke="none" 
	d="
M615.424438,685.793213 
	C612.801819,681.995422 615.811646,680.573425 618.186218,679.527039 
	C621.518250,678.058838 624.198975,679.159058 625.569397,683.127502 
	C622.599060,685.433167 619.079102,685.270325 615.424438,685.793213 
z"/>
</svg>